<svg width="84" height="54" viewBox="0 0 84 54" fill="none" xmlns="http://www.w3.org/2000/svg">
<path d="M1.37695 49.3848C1.35742 48.9941 1.34766 48.457 1.34766 47.7734C1.36719 47.0898 1.38672 46.3379 1.40625 45.5176C1.44531 44.6777 1.48438 43.7988 1.52344 42.8809C1.5625 41.9434 1.5918 41.0254 1.61133 40.127C1.65039 39.2285 1.67969 38.3789 1.69922 37.5781C1.73828 36.7578 1.76758 36.0449 1.78711 35.4395C1.80664 35.0098 1.82617 34.5898 1.8457 34.1797C1.86523 33.8281 1.875 33.4473 1.875 33.0371C1.875 32.627 1.85547 32.2559 1.81641 31.9238C1.97266 31.8652 2.09961 31.8066 2.19727 31.748C2.29492 31.6895 2.39258 31.6309 2.49023 31.5723C2.58789 31.4941 2.69531 31.416 2.8125 31.3379C2.94922 31.2402 3.13477 31.1426 3.36914 31.0449C3.50586 30.9863 3.65234 30.9375 3.80859 30.8984C3.94531 30.8594 4.0918 30.8301 4.24805 30.8105C4.42383 30.791 4.60938 30.791 4.80469 30.8105C5.13672 31.9043 5.46875 32.9199 5.80078 33.8574C6.15234 34.7754 6.50391 35.6738 6.85547 36.5527C7.20703 37.4121 7.57813 38.2812 7.96875 39.1602C8.35938 40.0195 8.75977 40.9473 9.16992 41.9434C9.59961 42.959 9.99023 43.8867 10.3418 44.7266C10.6934 45.5664 10.9863 46.2988 11.2207 46.9238C11.2598 46.2207 11.2988 45.4395 11.3379 44.5801C11.377 43.7012 11.4062 42.8027 11.4258 41.8848C11.4453 40.9668 11.4551 40.0684 11.4551 39.1895C11.4746 38.291 11.4844 37.4609 11.4844 36.6992C11.5039 35.918 11.5137 35.2344 11.5137 34.6484C11.5137 34.0625 11.5137 33.6328 11.5137 33.3594C11.5137 32.8711 11.6406 32.4707 11.8945 32.1582C12.168 31.8262 12.4707 31.5625 12.8027 31.3672C13.1543 31.1719 13.4961 31.0352 13.8281 30.957C14.1797 30.8789 14.4336 30.8398 14.5898 30.8398C14.707 30.8398 14.8047 30.8496 14.8828 30.8691C14.9609 30.8887 15.0293 30.9082 15.0879 30.9277C15.166 30.9473 15.2246 30.9766 15.2637 31.0156C14.9316 31.4648 14.6875 31.9434 14.5312 32.4512C14.375 32.959 14.2578 33.4668 14.1797 33.9746C14.1211 34.4824 14.0918 34.9805 14.0918 35.4688C14.0918 35.957 14.0918 36.4062 14.0918 36.8164C14.0723 37.793 14.043 38.9941 14.0039 40.4199C13.9648 41.6504 13.9355 43.1836 13.916 45.0195C13.8965 46.8555 13.8867 49.0527 13.8867 51.6113C13.4766 51.9434 13.0957 52.2266 12.7441 52.4609C12.3926 52.6953 11.9434 52.7734 11.3965 52.6953C11.1621 52.6758 10.9668 52.5781 10.8105 52.4023C10.6738 52.2266 10.5273 51.9727 10.3711 51.6406C10.2344 51.3281 10.0879 50.9375 9.93164 50.4688C9.77539 49.9805 9.57031 49.4141 9.31641 48.7695C8.86719 47.6367 8.4082 46.4941 7.93945 45.3418C7.4707 44.1895 7.02148 43.0957 6.5918 42.0605C6.16211 41.0254 5.76172 40.0879 5.39062 39.248C5.03906 38.3887 4.74609 37.6953 4.51172 37.168C4.16016 39.8438 3.99414 42.1484 4.01367 44.082C4.05273 46.0156 4.12109 47.4316 4.21875 48.3301C4.27734 48.7207 4.3457 49.1211 4.42383 49.5312C4.50195 49.8828 4.59961 50.2734 4.7168 50.7031C4.83398 51.1523 4.99023 51.6016 5.18555 52.0508C4.85352 52.3828 4.52148 52.6074 4.18945 52.7246C3.87695 52.8418 3.59375 52.9199 3.33984 52.959C3.04688 52.998 2.76367 52.9883 2.49023 52.9297C2.35352 52.8906 2.2168 52.7539 2.08008 52.5195C1.96289 52.3047 1.85547 52.0312 1.75781 51.6992C1.66016 51.3672 1.57227 50.9961 1.49414 50.5859C1.43555 50.1953 1.39648 49.7949 1.37695 49.3848ZM25.2832 48.9746C25.3223 49.1113 25.3809 49.2383 25.459 49.3555C25.5176 49.4531 25.5957 49.5508 25.6934 49.6484C25.8105 49.7266 25.9473 49.7754 26.1035 49.7949C25.9668 50.0684 25.8301 50.2539 25.6934 50.3516C25.6152 50.4102 25.5469 50.4492 25.4883 50.4688C25.3125 50.5273 25.0488 50.5566 24.6973 50.5566C24.3457 50.5566 24.0039 50.4492 23.6719 50.2344C23.5547 50.1367 23.4473 49.9902 23.3496 49.7949C23.252 49.6387 23.1641 49.4238 23.0859 49.1504C23.0273 48.8574 22.9785 48.4863 22.9395 48.0371C22.666 48.623 22.3535 49.0918 22.002 49.4434C21.6699 49.7754 21.3379 50.0195 21.0059 50.1758C20.6348 50.3906 20.2539 50.5176 19.8633 50.5566C19.375 50.5957 18.9062 50.5176 18.457 50.3223C18.0273 50.1074 17.6562 49.7949 17.3438 49.3848C17.0508 48.9551 16.8262 48.4375 16.6699 47.832C16.5137 47.2266 16.4648 46.543 16.5234 45.7812C16.582 44.9805 16.7383 44.2676 16.9922 43.6426C17.2461 43.0176 17.5488 42.4609 17.9004 41.9727C18.252 41.4844 18.623 41.0742 19.0137 40.7422C19.4043 40.3906 19.7754 40.1074 20.127 39.8926C20.498 39.6582 20.8105 39.4922 21.0645 39.3945C21.3379 39.2773 21.5137 39.209 21.5918 39.1895C21.8066 39.1309 21.9922 39.1113 22.1484 39.1309C22.3047 39.1504 22.4414 39.2383 22.5586 39.3945C22.5977 39.4531 22.6465 39.5215 22.7051 39.5996C22.7441 39.6777 22.793 39.7852 22.8516 39.9219C22.9102 40.0391 22.959 40.1758 22.998 40.332C22.5293 40.5469 22.0898 40.791 21.6797 41.0645C21.2695 41.3184 20.8887 41.6309 20.5371 42.002C20.2051 42.373 19.9121 42.8223 19.6582 43.3496C19.4043 43.877 19.209 44.5215 19.0723 45.2832C18.877 46.2402 18.9258 47.0117 19.2188 47.5977C19.5312 48.1836 19.9512 48.4277 20.4785 48.3301C20.791 48.2324 21.0938 48.0469 21.3867 47.7734C21.6406 47.5391 21.9043 47.1875 22.1777 46.7188C22.4707 46.25 22.7441 45.6055 22.998 44.7852C23.0957 43.6133 23.1738 42.6953 23.2324 42.0312C23.3105 41.3477 23.3789 40.8301 23.4375 40.4785C23.5156 40.0684 23.5742 39.7949 23.6133 39.6582C23.6719 39.5605 23.7891 39.4727 23.9648 39.3945C24.1406 39.2969 24.3359 39.2188 24.5508 39.1602C24.7656 39.1016 24.9609 39.0723 25.1367 39.0723C25.3125 39.0527 25.4297 39.0527 25.4883 39.0723C25.5273 39.0918 25.5469 39.3359 25.5469 39.8047C25.5469 40.2539 25.5273 40.8301 25.4883 41.5332C25.4688 42.2168 25.4395 42.9688 25.4004 43.7891C25.3613 44.5898 25.3223 45.3516 25.2832 46.0742C25.2637 46.7969 25.2441 47.4316 25.2246 47.9785C25.2246 48.5059 25.2441 48.8379 25.2832 48.9746ZM42.1289 46.7773C42.1289 46.9922 42.0508 47.3242 41.8945 47.7734C41.7578 48.2031 41.5234 48.6426 41.1914 49.0918C40.8594 49.5215 40.4297 49.9023 39.9023 50.2344C39.3945 50.5664 38.7695 50.7324 38.0273 50.7324C36.9727 50.7324 36.084 50.4492 35.3613 49.8828C34.6582 49.2969 34.1602 48.4668 33.8672 47.3926C33.6328 46.4941 33.5645 45.5371 33.6621 44.5215C33.7793 43.4863 34.0625 42.5293 34.5117 41.6504C34.9609 40.7715 35.5859 40.0293 36.3867 39.4238C37.1875 38.7988 38.1641 38.457 39.3164 38.3984C39.9023 38.3789 40.3906 38.4863 40.7812 38.7207C41.1719 38.9551 41.4746 39.2578 41.6895 39.6289C41.9043 40 42.0312 40.4102 42.0703 40.8594C42.1094 41.2891 42.0605 41.6992 41.9238 42.0898C41.8066 42.4805 41.6113 42.8125 41.3379 43.0859C41.084 43.3398 40.752 43.4766 40.3418 43.4961C39.9316 43.5352 39.5898 43.4863 39.3164 43.3496C39.0625 43.1934 38.8574 43.0078 38.7012 42.793C38.5645 42.5781 38.4668 42.3535 38.4082 42.1191C38.3691 41.8848 38.3691 41.6797 38.4082 41.5039C38.4668 41.25 38.5645 41.0156 38.7012 40.8008C38.8184 40.6055 38.9844 40.4102 39.1992 40.2148C39.4336 40.0195 39.7363 39.8633 40.1074 39.7461C40.0488 39.707 39.9902 39.6875 39.9316 39.6875C39.873 39.6875 39.8145 39.6777 39.7559 39.6582C39.6777 39.6582 39.6191 39.6484 39.5801 39.6289C39.2676 39.6289 38.9062 39.7363 38.4961 39.9512C38.1055 40.166 37.7246 40.5078 37.3535 40.9766C37.002 41.4453 36.6992 42.0508 36.4453 42.793C36.2109 43.5156 36.0938 44.3945 36.0938 45.4297C36.0938 45.8789 36.1426 46.3281 36.2402 46.7773C36.3379 47.207 36.4844 47.5977 36.6797 47.9492C36.8945 48.2812 37.1484 48.5547 37.4414 48.7695C37.7539 48.9648 38.1152 49.0625 38.5254 49.0625C38.9941 49.0625 39.4043 48.9648 39.7559 48.7695C40.127 48.5547 40.4395 48.3105 40.6934 48.0371C40.9473 47.7637 41.1426 47.4902 41.2793 47.2168C41.4355 46.9434 41.543 46.7383 41.6016 46.6016C41.6602 46.4844 41.7578 46.4258 41.8945 46.4258C42.0508 46.4258 42.1289 46.543 42.1289 46.7773ZM52.2949 48.9746C52.334 49.1113 52.3926 49.2383 52.4707 49.3555C52.5293 49.4531 52.6074 49.5508 52.7051 49.6484C52.8223 49.7266 52.959 49.7754 53.1152 49.7949C52.9785 50.0684 52.8418 50.2539 52.7051 50.3516C52.627 50.4102 52.5586 50.4492 52.5 50.4688C52.3242 50.5273 52.0605 50.5566 51.709 50.5566C51.3574 50.5566 51.0156 50.4492 50.6836 50.2344C50.5664 50.1367 50.459 49.9902 50.3613 49.7949C50.2637 49.6387 50.1758 49.4238 50.0977 49.1504C50.0391 48.8574 49.9902 48.4863 49.9512 48.0371C49.6777 48.623 49.3652 49.0918 49.0137 49.4434C48.6816 49.7754 48.3496 50.0195 48.0176 50.1758C47.6465 50.3906 47.2656 50.5176 46.875 50.5566C46.3867 50.5957 45.918 50.5176 45.4688 50.3223C45.0391 50.1074 44.668 49.7949 44.3555 49.3848C44.0625 48.9551 43.8379 48.4375 43.6816 47.832C43.5254 47.2266 43.4766 46.543 43.5352 45.7812C43.5938 44.9805 43.75 44.2676 44.0039 43.6426C44.2578 43.0176 44.5605 42.4609 44.9121 41.9727C45.2637 41.4844 45.6348 41.0742 46.0254 40.7422C46.416 40.3906 46.7871 40.1074 47.1387 39.8926C47.5098 39.6582 47.8223 39.4922 48.0762 39.3945C48.3496 39.2773 48.5254 39.209 48.6035 39.1895C48.8184 39.1309 49.0039 39.1113 49.1602 39.1309C49.3164 39.1504 49.4531 39.2383 49.5703 39.3945C49.6094 39.4531 49.6582 39.5215 49.7168 39.5996C49.7559 39.6777 49.8047 39.7852 49.8633 39.9219C49.9219 40.0391 49.9707 40.1758 50.0098 40.332C49.541 40.5469 49.1016 40.791 48.6914 41.0645C48.2812 41.3184 47.9004 41.6309 47.5488 42.002C47.2168 42.373 46.9238 42.8223 46.6699 43.3496C46.416 43.877 46.2207 44.5215 46.084 45.2832C45.8887 46.2402 45.9375 47.0117 46.2305 47.5977C46.543 48.1836 46.9629 48.4277 47.4902 48.3301C47.8027 48.2324 48.1055 48.0469 48.3984 47.7734C48.6523 47.5391 48.916 47.1875 49.1895 46.7188C49.4824 46.25 49.7559 45.6055 50.0098 44.7852C50.1074 43.6133 50.1855 42.6953 50.2441 42.0312C50.3223 41.3477 50.3906 40.8301 50.4492 40.4785C50.5273 40.0684 50.5859 39.7949 50.625 39.6582C50.6836 39.5605 50.8008 39.4727 50.9766 39.3945C51.1523 39.2969 51.3477 39.2188 51.5625 39.1602C51.7773 39.1016 51.9727 39.0723 52.1484 39.0723C52.3242 39.0527 52.4414 39.0527 52.5 39.0723C52.5391 39.0918 52.5586 39.3359 52.5586 39.8047C52.5586 40.2539 52.5391 40.8301 52.5 41.5332C52.4805 42.2168 52.4512 42.9688 52.4121 43.7891C52.373 44.5898 52.334 45.3516 52.2949 46.0742C52.2754 46.7969 52.2559 47.4316 52.2363 47.9785C52.2363 48.5059 52.2559 48.8379 52.2949 48.9746ZM54.9902 40.0977C54.9902 39.9805 55.1465 39.8535 55.459 39.7168C55.7715 39.5801 56.1133 39.4727 56.4844 39.3945C56.875 39.2969 57.2266 39.248 57.5391 39.248C57.8711 39.2285 58.0371 39.2969 58.0371 39.4531C58.0371 39.7461 58.0176 40.166 57.9785 40.7129C57.9395 41.2402 57.8906 41.8066 57.832 42.4121C57.7734 42.998 57.7148 43.5938 57.6562 44.1992C57.5977 44.7852 57.5586 45.2832 57.5391 45.6934C57.5 46.123 57.4609 46.5918 57.4219 47.0996C57.3828 47.5293 57.3535 48.0078 57.334 48.5352C57.3145 49.0625 57.3145 49.5996 57.334 50.1465C57.334 50.2441 57.2363 50.3418 57.041 50.4395C56.8457 50.5371 56.6309 50.6055 56.3965 50.6445C56.1621 50.7031 55.9375 50.7324 55.7227 50.7324C55.5078 50.7324 55.3906 50.6934 55.3711 50.6152C55.332 50.5371 55.293 50.4004 55.2539 50.2051C55.2148 50.0098 55.1758 49.7363 55.1367 49.3848C55.0977 49.0137 55.0684 48.5449 55.0488 47.9785C55.0293 47.3926 55.0391 46.6895 55.0781 45.8691C55.1562 44.248 55.166 42.998 55.1074 42.1191C55.0488 41.2207 55.0098 40.5469 54.9902 40.0977ZM57.041 34.2676C57.4316 34.2676 57.8027 34.3848 58.1543 34.6191C58.5059 34.8535 58.6816 35.166 58.6816 35.5566C58.6816 35.8496 58.6035 36.1328 58.4473 36.4062C58.3105 36.6797 58.1348 36.9238 57.9199 37.1387C57.7051 37.3535 57.4609 37.5293 57.1875 37.666C56.9141 37.7832 56.6602 37.8418 56.4258 37.8418C56.1133 37.8418 55.8594 37.793 55.6641 37.6953C55.4688 37.5781 55.3125 37.4512 55.1953 37.3145C55.0977 37.1582 55.0293 36.9922 54.9902 36.8164C54.9512 36.6406 54.9316 36.4746 54.9316 36.3184C54.9316 36.123 54.9609 35.9082 55.0195 35.6738C55.0781 35.4199 55.1855 35.1953 55.3418 35C55.498 34.7852 55.7129 34.6094 55.9863 34.4727C56.2598 34.3359 56.6113 34.2676 57.041 34.2676ZM56.3086 36.9922C56.4258 36.9922 56.5527 36.9531 56.6895 36.875C56.8457 36.7773 56.9824 36.6699 57.0996 36.5527C57.2363 36.4355 57.3438 36.3086 57.4219 36.1719C57.5195 36.0352 57.5684 35.918 57.5684 35.8203C57.5684 35.6641 57.4902 35.5859 57.334 35.5859C57.2363 35.5859 57.1094 35.625 56.9531 35.7031C56.8164 35.7812 56.6797 35.8789 56.543 35.9961C56.4062 36.0938 56.2891 36.2109 56.1914 36.3477C56.1133 36.4648 56.0742 36.582 56.0742 36.6992C56.0742 36.8945 56.1523 36.9922 56.3086 36.9922ZM61.377 51.2598C61.123 51.0645 60.918 50.8887 60.7617 50.7324C60.6055 50.5762 60.4785 50.4395 60.3809 50.3223C60.2637 50.1855 60.1758 50.0586 60.1172 49.9414C59.9609 49.668 59.9121 49.375 59.9707 49.0625C60.0293 48.75 60.1465 48.3984 60.3223 48.0078C60.4785 47.6758 60.7324 47.207 61.084 46.6016C61.4551 45.9961 61.8848 45.332 62.373 44.6094C62.0996 44.1602 61.8164 43.6816 61.5234 43.1738C61.25 42.7246 60.9473 42.207 60.6152 41.6211C60.3027 41.0156 59.9512 40.3711 59.5605 39.6875C59.8145 39.5117 60.0488 39.3945 60.2637 39.3359C60.498 39.2578 60.7031 39.2188 60.8789 39.2188C61.0938 39.2188 61.2793 39.2383 61.4355 39.2773C61.7871 39.4336 62.0996 39.8242 62.373 40.4492C62.666 41.0547 63.0664 41.8652 63.5742 42.8809C63.8281 42.5293 64.1113 42.1484 64.4238 41.7383C64.6973 41.3867 65 40.9766 65.332 40.5078C65.6836 40.0195 66.0742 39.4922 66.5039 38.9258C66.6211 38.9648 66.7285 38.9941 66.8262 39.0137C66.9434 39.0332 67.0508 39.0625 67.1484 39.1016C67.2461 39.1406 67.3438 39.1797 67.4414 39.2188C67.5195 39.2578 67.5977 39.3164 67.6758 39.3945C67.793 39.5117 67.9297 39.6973 68.0859 39.9512C67.5781 40.6348 67.1191 41.2695 66.709 41.8555C66.2988 42.4414 65.9375 42.9492 65.625 43.3789C65.2734 43.8867 64.9512 44.3457 64.6582 44.7559C64.6582 44.7559 64.6387 44.7949 64.5996 44.873C64.6191 44.8926 64.6289 44.9121 64.6289 44.9316C64.6289 44.9316 64.6387 44.9414 64.6582 44.9609C64.9316 45.4102 65.2441 45.918 65.5957 46.4844C65.9082 46.9727 66.2891 47.5586 66.7383 48.2422C67.1875 48.9258 67.7051 49.707 68.291 50.5859C67.9785 50.7031 67.7148 50.7812 67.5 50.8203C67.3828 50.8398 67.2754 50.8496 67.1777 50.8496C67.0801 50.8691 66.9727 50.8691 66.8555 50.8496C66.7578 50.8301 66.6309 50.8008 66.4746 50.7617C66.3379 50.7422 66.1914 50.7031 66.0352 50.6445C65.7227 50.1562 65.4199 49.6777 65.127 49.209C64.834 48.7207 64.5703 48.2812 64.3359 47.8906C64.0625 47.4414 63.8086 47.0117 63.5742 46.6016C63.2812 47.1094 62.998 47.627 62.7246 48.1543C62.4902 48.6035 62.2461 49.1113 61.9922 49.6777C61.7383 50.2246 61.5332 50.752 61.377 51.2598ZM77.6953 48.9746C77.7344 49.1113 77.793 49.2383 77.8711 49.3555C77.9297 49.4531 78.0078 49.5508 78.1055 49.6484C78.2227 49.7266 78.3594 49.7754 78.5156 49.7949C78.3789 50.0684 78.2422 50.2539 78.1055 50.3516C78.0273 50.4102 77.959 50.4492 77.9004 50.4688C77.7246 50.5273 77.4609 50.5566 77.1094 50.5566C76.7578 50.5566 76.416 50.4492 76.084 50.2344C75.9668 50.1367 75.8594 49.9902 75.7617 49.7949C75.6641 49.6387 75.5762 49.4238 75.498 49.1504C75.4395 48.8574 75.3906 48.4863 75.3516 48.0371C75.0781 48.623 74.7656 49.0918 74.4141 49.4434C74.082 49.7754 73.75 50.0195 73.418 50.1758C73.0469 50.3906 72.666 50.5176 72.2754 50.5566C71.7871 50.5957 71.3184 50.5176 70.8691 50.3223C70.4395 50.1074 70.0684 49.7949 69.7559 49.3848C69.4629 48.9551 69.2383 48.4375 69.082 47.832C68.9258 47.2266 68.877 46.543 68.9355 45.7812C68.9941 44.9805 69.1504 44.2676 69.4043 43.6426C69.6582 43.0176 69.9609 42.4609 70.3125 41.9727C70.6641 41.4844 71.0352 41.0742 71.4258 40.7422C71.8164 40.3906 72.1875 40.1074 72.5391 39.8926C72.9102 39.6582 73.2227 39.4922 73.4766 39.3945C73.75 39.2773 73.9258 39.209 74.0039 39.1895C74.2188 39.1309 74.4043 39.1113 74.5605 39.1309C74.7168 39.1504 74.8535 39.2383 74.9707 39.3945C75.0098 39.4531 75.0586 39.5215 75.1172 39.5996C75.1562 39.6777 75.2051 39.7852 75.2637 39.9219C75.3223 40.0391 75.3711 40.1758 75.4102 40.332C74.9414 40.5469 74.502 40.791 74.0918 41.0645C73.6816 41.3184 73.3008 41.6309 72.9492 42.002C72.6172 42.373 72.3242 42.8223 72.0703 43.3496C71.8164 43.877 71.6211 44.5215 71.4844 45.2832C71.2891 46.2402 71.3379 47.0117 71.6309 47.5977C71.9434 48.1836 72.3633 48.4277 72.8906 48.3301C73.2031 48.2324 73.5059 48.0469 73.7988 47.7734C74.0527 47.5391 74.3164 47.1875 74.5898 46.7188C74.8828 46.25 75.1562 45.6055 75.4102 44.7852C75.5078 43.6133 75.5859 42.6953 75.6445 42.0312C75.7227 41.3477 75.791 40.8301 75.8496 40.4785C75.9277 40.0684 75.9863 39.7949 76.0254 39.6582C76.084 39.5605 76.2012 39.4727 76.377 39.3945C76.5527 39.2969 76.748 39.2188 76.9629 39.1602C77.1777 39.1016 77.373 39.0723 77.5488 39.0723C77.7246 39.0527 77.8418 39.0527 77.9004 39.0723C77.9395 39.0918 77.959 39.3359 77.959 39.8047C77.959 40.2539 77.9395 40.8301 77.9004 41.5332C77.8809 42.2168 77.8516 42.9688 77.8125 43.7891C77.7734 44.5898 77.7344 45.3516 77.6953 46.0742C77.6758 46.7969 77.6562 47.4316 77.6367 47.9785C77.6367 48.5059 77.6562 48.8379 77.6953 48.9746Z" fill="black"/>
<path d="M43.9223 31.7201L43.963 31.6157C47.1699 26.6085 45.8203 21.1676 40.8765 19.1986L34.1537 16.5757L33.6879 23.6151C33.3256 28.8093 37.7295 32.3729 43.7567 31.7758L43.8637 31.8176L43.9223 31.7201Z" fill="#FFC100"/>
<path d="M45.6871 26.615C45.5102 28.4221 44.8911 30.1578 43.8846 31.669L43.8345 31.7976L43.7242 31.7546C41.9243 31.9908 40.0939 31.7852 38.3912 31.1555C39.9415 31.3351 41.507 30.984 42.8321 30.1593C44.1571 29.3347 45.1636 28.0853 45.6871 26.615Z" fill="black"/>
<path d="M39.333 18.4527C38.2332 18.6564 37.1812 19.0797 36.2379 19.6979C35.275 20.3203 34.4379 21.1256 33.7735 22.0689L34.2332 16.4097L39.333 18.4527Z" fill="black"/>
<path d="M45.395 23.7288C45.1164 22.6643 44.5954 21.6787 43.8728 20.8489C43.1559 22.8645 41.3785 23.4366 39.5615 24.5656C37.7444 25.6947 35.9952 27.3139 33.8705 27.0639C34.2965 28.081 34.9492 28.9872 35.7789 29.7135C37.7543 29.5996 39.6697 28.9922 41.3497 27.9466C43.0296 26.9011 44.4205 25.4509 45.395 23.7288Z" fill="black"/>
<path d="M36.8739 12.9651C37.3336 13.6808 37.5695 14.5173 37.5516 15.3677C37.5336 16.2182 37.2626 17.044 36.7732 17.7397C36.2837 18.4354 35.598 18.9694 34.8036 19.2736C34.0092 19.5778 33.1422 19.6382 32.3133 19.4473C31.4843 19.2564 30.7311 18.8228 30.1498 18.2018C29.5685 17.5808 29.1855 16.8006 29.0496 15.9609C28.9138 15.1212 29.0313 14.26 29.3872 13.4874C29.7431 12.7148 30.3211 12.0658 31.0476 11.6232C32.0017 11.042 33.1453 10.857 34.234 11.1077C35.3227 11.3585 36.2701 12.0251 36.8739 12.9651Z" fill="black"/>
<path d="M36.0595 22.8856C33.1813 22.0681 30.1144 21.7398 27.0984 21.9264C25.7099 22.0441 24.4419 22.5109 23.5086 23.248C23.0979 23.6224 22.8076 24.0615 22.6581 24.5349C22.6161 24.7818 22.5979 25.0313 22.6035 25.2817C22.606 25.5161 22.6428 25.7508 22.7134 25.9818C22.8944 26.4519 23.232 26.8868 23.6951 27.2465C24.1582 27.6062 24.7321 27.8792 25.3642 28.0406C26.7265 28.4222 28.1883 28.5289 29.5916 28.3492C32.541 27.9537 35.2252 26.9257 37.3091 25.3934C35.5542 27.2956 32.8983 28.645 29.8193 29.1987C28.2078 29.4663 26.5029 29.3826 24.9109 28.9577C24.0583 28.7409 23.2838 28.3736 22.6583 27.8893C22.0327 27.4051 21.5761 26.8194 21.3302 26.1858C21.2347 25.861 21.1886 25.5311 21.1927 25.2022C21.2257 24.8898 21.2913 24.5809 21.389 24.278C21.5973 23.6626 21.9905 23.0946 22.5407 22.6142C23.7064 21.7362 25.2896 21.2138 26.9945 21.1446C30.1419 21.0803 33.2902 21.6849 36.0595 22.8856Z" fill="#B7B0B0"/>
<path d="M38.8857 21.5051C38.8611 18.6494 39.6122 15.5988 41.0465 12.7298C41.8523 11.2186 43.0508 9.9399 44.4194 9.13097C45.1285 8.7774 45.8547 8.59359 46.5435 8.59334C46.8852 8.58541 47.2184 8.61097 47.5396 8.66972C47.8697 8.75938 48.1796 8.8929 48.4641 9.068C48.9905 9.45849 49.3773 10.0289 49.5884 10.7262C49.7995 11.4234 49.8281 12.2247 49.6714 13.0555C49.3916 14.6302 48.7225 16.2118 47.7441 17.6114C45.8538 20.2407 43.3641 22.2758 40.7145 23.3575C43.1575 21.8914 45.3625 19.7421 47.0566 17.1757C47.8231 15.9453 48.3363 14.5954 48.5446 13.2619C48.6535 12.6526 48.6298 12.0658 48.4756 11.5534C48.3214 11.041 48.0415 10.6189 47.6605 10.3244C47.4589 10.1978 47.2403 10.0986 47.0078 10.0284C46.7537 9.98034 46.491 9.95585 46.2218 9.95506C45.6804 9.95206 45.1103 10.0848 44.5494 10.3446C43.4075 10.9872 42.3897 12.0108 41.6704 13.2401C40.2348 15.8967 39.2823 18.7238 38.8857 21.5051Z" fill="#B7B0B0"/>
<path d="M24.5418 9.19043L24.6521 9.23345L28.7114 12.0661C28.8035 12.1366 28.8665 12.2385 28.8884 12.3524C28.9103 12.4663 28.8896 12.5842 28.8302 12.6839C28.7971 12.731 28.7548 12.771 28.706 12.8016C28.6572 12.8322 28.6028 12.8528 28.546 12.8621C28.4891 12.8715 28.431 12.8694 28.3749 12.856C28.3189 12.8427 28.2661 12.8183 28.2196 12.7843L24.1418 9.94451C24.0947 9.91133 24.0546 9.86911 24.024 9.8203C23.9934 9.77149 23.9728 9.71707 23.9635 9.66022C23.9541 9.60338 23.9563 9.54525 23.9696 9.48921C23.983 9.43317 24.0074 9.38036 24.0413 9.33385C24.0958 9.2563 24.1752 9.19977 24.2662 9.17367C24.3573 9.14758 24.4545 9.15348 24.5418 9.19043Z" fill="black"/>
<path d="M32.3508 4.21023C32.4226 4.2362 32.4859 4.28156 32.5336 4.34125C32.5813 4.40095 32.6115 4.47266 32.621 4.54848L33.3915 9.46337C33.4043 9.52129 33.4051 9.58124 33.3938 9.63947C33.3825 9.6977 33.3593 9.75298 33.3258 9.80193C33.2923 9.85087 33.2491 9.89243 33.1989 9.92401C33.1487 9.9556 33.0925 9.97654 33.0339 9.98557C32.9753 9.9946 32.9154 9.99153 32.858 9.97651C32.8007 9.96149 32.747 9.93486 32.7003 9.89827C32.6536 9.86168 32.6149 9.8159 32.5866 9.76377C32.5583 9.71163 32.541 9.65424 32.5357 9.59516L31.7652 4.68027C31.753 4.56763 31.7834 4.45448 31.8504 4.3631C31.9173 4.27172 32.0161 4.20872 32.1272 4.18651L32.3508 4.21023Z" fill="black"/>
</svg>
