<svg width="59" height="70" viewBox="0 0 59 70" fill="none" xmlns="http://www.w3.org/2000/svg">
<path d="M4.21429 63.4375C4.21429 65.178 4.88029 66.8472 6.06579 68.0779C7.25129 69.3086 8.85917 70 10.5357 70H48.4643C50.1408 70 51.7487 69.3086 52.9342 68.0779C54.1197 66.8472 54.7857 65.178 54.7857 63.4375V17.5H4.21429V63.4375ZM40.0357 28.4375C40.0357 27.8574 40.2577 27.301 40.6529 26.8907C41.048 26.4805 41.584 26.25 42.1429 26.25C42.7017 26.25 43.2377 26.4805 43.6328 26.8907C44.028 27.301 44.25 27.8574 44.25 28.4375V59.0625C44.25 59.6427 44.028 60.1991 43.6328 60.6093C43.2377 61.0195 42.7017 61.25 42.1429 61.25C41.584 61.25 41.048 61.0195 40.6529 60.6093C40.2577 60.1991 40.0357 59.6427 40.0357 59.0625V28.4375ZM27.3929 28.4375C27.3929 27.8574 27.6149 27.301 28.01 26.8907C28.4052 26.4805 28.9412 26.25 29.5 26.25C30.0588 26.25 30.5948 26.4805 30.99 26.8907C31.3851 27.301 31.6071 27.8574 31.6071 28.4375V59.0625C31.6071 59.6427 31.3851 60.1991 30.99 60.6093C30.5948 61.0195 30.0588 61.25 29.5 61.25C28.9412 61.25 28.4052 61.0195 28.01 60.6093C27.6149 60.1991 27.3929 59.6427 27.3929 59.0625V28.4375ZM14.75 28.4375C14.75 27.8574 14.972 27.301 15.3672 26.8907C15.7623 26.4805 16.2983 26.25 16.8571 26.25C17.416 26.25 17.952 26.4805 18.3471 26.8907C18.7423 27.301 18.9643 27.8574 18.9643 28.4375V59.0625C18.9643 59.6427 18.7423 60.1991 18.3471 60.6093C17.952 61.0195 17.416 61.25 16.8571 61.25C16.2983 61.25 15.7623 61.0195 15.3672 60.6093C14.972 60.1991 14.75 59.6427 14.75 59.0625V28.4375ZM56.8929 4.37502H41.0893L39.8513 1.81838C39.5891 1.2718 39.1852 0.812027 38.6849 0.490787C38.1847 0.169547 37.6081 -0.000413979 37.0199 2.39705e-05H21.967C21.3801 -0.00231809 20.8045 0.167009 20.306 0.488607C19.8076 0.810204 19.4065 1.27106 19.1487 1.81838L17.9107 4.37502H2.10714C1.54829 4.37502 1.01233 4.60549 0.617168 5.01573C0.222002 5.42596 0 5.98236 0 6.56252L0 10.9375C0 11.5177 0.222002 12.0741 0.617168 12.4843C1.01233 12.8946 1.54829 13.125 2.10714 13.125H56.8929C57.4517 13.125 57.9877 12.8946 58.3828 12.4843C58.778 12.0741 59 11.5177 59 10.9375V6.56252C59 5.98236 58.778 5.42596 58.3828 5.01573C57.9877 4.60549 57.4517 4.37502 56.8929 4.37502Z" fill="#FF0000" fill-opacity="0.61"/>
</svg>
